<svg width="122" height="122" viewBox="0 0 122 122" fill="none" xmlns="http://www.w3.org/2000/svg">
<g opacity="0.2">
<mask id="path-1-inside-1_24_257" fill="white">
<path d="M122 61C122 94.6894 94.6894 122 61 122C27.3106 122 0 94.6894 0 61C0 27.3106 27.3106 0 61 0C94.6894 0 122 27.3106 122 61ZM7.93 61C7.93 90.3098 31.6902 114.07 61 114.07C90.3098 114.07 114.07 90.3098 114.07 61C114.07 31.6902 90.3098 7.93 61 7.93C31.6902 7.93 7.93 31.6902 7.93 61Z"/>
</mask>
<path d="M122 61C122 94.6894 94.6894 122 61 122C27.3106 122 0 94.6894 0 61C0 27.3106 27.3106 0 61 0C94.6894 0 122 27.3106 122 61ZM7.93 61C7.93 90.3098 31.6902 114.07 61 114.07C90.3098 114.07 114.07 90.3098 114.07 61C114.07 31.6902 90.3098 7.93 61 7.93C31.6902 7.93 7.93 31.6902 7.93 61Z" stroke="url(#paint0_linear_24_257)" stroke-width="15.0154" stroke-linecap="round" mask="url(#path-1-inside-1_24_257)"/>
</g>
<mask id="path-2-inside-2_24_257" fill="white">
<path d="M118.035 61C120.225 61 122.013 62.7771 121.871 64.9623C121.05 77.5756 116.327 89.6597 108.305 99.5125C99.4471 110.393 87.1089 117.887 73.37 120.733C59.6311 123.578 45.3314 121.6 32.8806 115.132C20.4298 108.665 10.5891 98.1025 5.01697 85.226C-0.555188 72.3495 -1.5182 57.9458 2.29023 44.4421C6.09865 30.9385 14.4457 19.1604 25.9247 11.0929C37.4037 3.0253 51.3128 -0.838596 65.3082 0.152329C77.9817 1.04966 90.0242 5.87832 99.7808 13.9144C101.471 15.3066 101.542 17.827 100.043 19.4233C98.5441 21.0196 96.0434 21.0853 94.3397 19.7096C85.9233 12.9136 75.6017 8.831 64.7482 8.06253C52.5722 7.20042 40.4712 10.562 30.4845 17.5808C20.4977 24.5996 13.2358 34.8465 9.9225 46.5947C6.60917 58.3428 7.44699 70.8741 12.2948 82.0766C17.1425 93.2792 25.7039 102.468 36.5361 108.095C47.3683 113.722 59.8091 115.443 71.7619 112.967C83.7148 110.492 94.449 103.972 102.156 94.5059C109.025 86.068 113.115 75.7491 113.922 64.9616C114.085 62.7779 115.845 61 118.035 61Z"/>
</mask>
<path d="M118.035 61C120.225 61 122.013 62.7771 121.871 64.9623C121.05 77.5756 116.327 89.6597 108.305 99.5125C99.4471 110.393 87.1089 117.887 73.37 120.733C59.6311 123.578 45.3314 121.6 32.8806 115.132C20.4298 108.665 10.5891 98.1025 5.01697 85.226C-0.555188 72.3495 -1.5182 57.9458 2.29023 44.4421C6.09865 30.9385 14.4457 19.1604 25.9247 11.0929C37.4037 3.0253 51.3128 -0.838596 65.3082 0.152329C77.9817 1.04966 90.0242 5.87832 99.7808 13.9144C101.471 15.3066 101.542 17.827 100.043 19.4233C98.5441 21.0196 96.0434 21.0853 94.3397 19.7096C85.9233 12.9136 75.6017 8.831 64.7482 8.06253C52.5722 7.20042 40.4712 10.562 30.4845 17.5808C20.4977 24.5996 13.2358 34.8465 9.9225 46.5947C6.60917 58.3428 7.44699 70.8741 12.2948 82.0766C17.1425 93.2792 25.7039 102.468 36.5361 108.095C47.3683 113.722 59.8091 115.443 71.7619 112.967C83.7148 110.492 94.449 103.972 102.156 94.5059C109.025 86.068 113.115 75.7491 113.922 64.9616C114.085 62.7779 115.845 61 118.035 61Z" stroke="url(#paint1_linear_24_257)" stroke-width="15.0154" stroke-linecap="round" mask="url(#path-2-inside-2_24_257)"/>
<path d="M42.3004 73.3013C40.3559 73.3013 38.7008 73.0235 37.335 72.468C35.9692 71.8892 34.9275 71.1022 34.2099 70.1068C33.5155 69.0883 33.1682 67.9077 33.1682 66.565C33.1682 65.1298 33.5155 63.8682 34.2099 62.7802C34.9275 61.6922 35.9692 60.8357 37.335 60.2107C38.7008 59.5857 40.3559 59.2848 42.3004 59.3079C44.268 59.2848 45.9348 59.5857 47.3005 60.2107C48.6663 60.8357 49.708 61.6922 50.4256 62.7802C51.1432 63.8682 51.502 65.1298 51.502 66.565C51.502 67.9077 51.1432 69.0883 50.4256 70.1068C49.708 71.1022 48.6663 71.8892 47.3005 72.468C45.9348 73.0235 44.268 73.3013 42.3004 73.3013ZM42.3004 69.3429C43.5736 69.3429 44.6153 69.0304 45.4255 68.4054C46.2357 67.7572 46.6408 66.9354 46.6408 65.94C46.6408 64.852 46.2357 63.9724 45.4255 63.3011C44.6153 62.6298 43.5736 62.2941 42.3004 62.2941C41.4671 62.2941 40.7263 62.4446 40.0781 62.7455C39.4531 63.0464 38.9554 63.4747 38.585 64.0303C38.2147 64.5858 38.0295 65.2224 38.0295 65.94C38.0295 66.6113 38.2147 67.2016 38.585 67.7109C38.9554 68.2202 39.4531 68.6253 40.0781 68.9262C40.7263 69.204 41.4671 69.3429 42.3004 69.3429ZM42.3004 61.183C40.5643 61.183 39.0712 60.9168 37.8211 60.3843C36.5711 59.8288 35.6104 59.0764 34.9391 58.1273C34.2909 57.1551 33.9669 56.0324 33.9669 54.7592C33.9669 53.4629 34.2909 52.317 34.9391 51.3216C35.6104 50.3262 36.5711 49.5507 37.8211 48.9952C39.0712 48.4396 40.5643 48.1618 42.3004 48.1618C44.0597 48.1618 45.5644 48.4396 46.8144 48.9952C48.0644 49.5507 49.0251 50.3262 49.6964 51.3216C50.3677 52.317 50.7034 53.4629 50.7034 54.7592C50.7034 56.0324 50.3677 57.1551 49.6964 58.1273C49.0251 59.0764 48.0644 59.8288 46.8144 60.3843C45.5644 60.9168 44.0597 61.183 42.3004 61.183ZM42.3004 58.5093C43.4115 58.5093 44.3143 58.2084 45.0088 57.6065C45.7264 57.0046 46.0852 56.2407 46.0852 55.3148C46.0852 54.3194 45.7264 53.5207 45.0088 52.9189C44.3143 52.2939 43.4115 51.9813 42.3004 51.9813C41.2124 51.9813 40.3212 52.2939 39.6267 52.9189C38.9323 53.5207 38.585 54.3194 38.585 55.3148C38.585 56.2407 38.9323 57.0046 39.6267 57.6065C40.3212 58.2084 41.2124 58.5093 42.3004 58.5093ZM55.5058 72.8846L65.506 52.5022L70.5408 52.0855L60.7837 72.8846H55.5058ZM53.4224 52.9189V48.5785H70.5408V52.0855L65.7143 52.9189H53.4224ZM72.6473 72.8846V69.3776C72.6473 68.7063 72.8556 67.9655 73.2723 67.1553C73.689 66.3451 74.2677 65.5349 75.0085 64.7247C75.7492 63.9145 76.6173 63.1622 77.6127 62.4677L81.2933 59.8288C81.8026 59.4815 82.2772 59.088 82.717 58.6482C83.18 58.2084 83.5503 57.7338 83.8281 57.2245C84.1291 56.6921 84.2795 56.1828 84.2795 55.6967C84.2795 55.0949 84.1291 54.5509 83.8281 54.0647C83.5503 53.5786 83.1337 53.1967 82.5781 52.9189C82.0225 52.6411 81.3396 52.5022 80.5294 52.5022C79.835 52.5022 79.2099 52.6411 78.6544 52.9189C78.122 53.1967 77.6821 53.567 77.3349 54.03C76.9877 54.493 76.7446 54.9907 76.6057 55.5231L71.7098 54.6898C71.9413 53.5323 72.4389 52.4559 73.2029 51.4605C73.9668 50.4651 74.9622 49.6665 76.189 49.0646C77.4391 48.4396 78.8511 48.1271 80.4253 48.1271C82.2309 48.1271 83.7818 48.4512 85.0781 49.0993C86.3745 49.7475 87.3699 50.6387 88.0643 51.773C88.7819 52.8842 89.1408 54.1805 89.1408 55.662C89.1408 57.1667 88.7241 58.5093 87.8907 59.6899C87.0805 60.8473 85.9578 61.9353 84.5226 62.9538L81.2239 65.3497C80.5526 65.8127 79.9739 66.322 79.4877 66.8776C79.0016 67.4331 78.6312 68.0466 78.3766 68.7179H89.4533V72.8846H72.6473Z" fill="#FFEE32"/>
<path d="M47.4883 27.3V20.4023H48.8383V26.0683H51.8733V27.3H47.4883ZM55.5695 27.3L55.5301 26.3047V24.807C55.5301 24.5113 55.4973 24.2584 55.4316 24.0482C55.3725 23.838 55.2739 23.6771 55.136 23.5654C55.0046 23.4471 54.8239 23.388 54.594 23.388C54.3838 23.388 54.1933 23.434 54.0225 23.526C53.8517 23.6179 53.7072 23.7592 53.5889 23.9497L52.4459 23.5555C52.5378 23.3453 52.6725 23.1417 52.8499 22.9446C53.0272 22.7409 53.2572 22.5767 53.5396 22.4519C53.8287 22.3205 54.1801 22.2548 54.594 22.2548C55.0933 22.2548 55.5071 22.3501 55.8356 22.5406C56.1706 22.7311 56.417 23.0004 56.5746 23.3486C56.7389 23.6902 56.8177 24.0975 56.8111 24.5705L56.7816 27.3H55.5695ZM54.19 27.4182C53.5988 27.4182 53.1389 27.2868 52.8105 27.0241C52.4886 26.7613 52.3276 26.3901 52.3276 25.9106C52.3276 25.3851 52.5017 24.9909 52.8499 24.7281C53.2046 24.4588 53.7006 24.3241 54.3378 24.3241H55.5892V25.2898H54.7911C54.3641 25.2898 54.0685 25.3424 53.9042 25.4475C53.74 25.546 53.6579 25.6872 53.6579 25.8712C53.6579 26.0157 53.7236 26.1307 53.855 26.2161C53.9864 26.2949 54.1703 26.3343 54.4068 26.3343C54.6236 26.3343 54.8141 26.285 54.9783 26.1865C55.1491 26.0814 55.2838 25.95 55.3823 25.7923C55.4809 25.6281 55.5301 25.4606 55.5301 25.2898H55.8454C55.8454 25.9599 55.7173 26.4821 55.4611 26.8566C55.2115 27.231 54.7878 27.4182 54.19 27.4182ZM57.8478 27.3V20.4023H59.1485V26.3836L59.0795 27.3H57.8478ZM60.6364 27.4182C60.2226 27.4182 59.8711 27.3131 59.5821 27.1029C59.2996 26.8927 59.0828 26.5938 58.9317 26.2062C58.7806 25.8186 58.7051 25.3621 58.7051 24.8365C58.7051 24.3044 58.7806 23.8479 58.9317 23.4668C59.0828 23.0793 59.2996 22.7804 59.5821 22.5701C59.8711 22.3599 60.2226 22.2548 60.6364 22.2548C61.0897 22.2548 61.4806 22.3599 61.809 22.5701C62.1441 22.7804 62.4035 23.0793 62.5875 23.4668C62.7714 23.8479 62.8634 24.3044 62.8634 24.8365C62.8634 25.3621 62.7714 25.8186 62.5875 26.2062C62.4035 26.5938 62.1441 26.8927 61.809 27.1029C61.4806 27.3131 61.0897 27.4182 60.6364 27.4182ZM60.3014 26.2259C60.5379 26.2259 60.7448 26.1668 60.9222 26.0485C61.1061 25.9303 61.2506 25.7661 61.3557 25.5559C61.4609 25.3456 61.5134 25.1059 61.5134 24.8365C61.5134 24.5672 61.4609 24.3274 61.3557 24.1172C61.2572 23.907 61.116 23.746 60.932 23.6344C60.7547 23.5161 60.5477 23.457 60.3112 23.457C60.0879 23.457 59.8875 23.5161 59.7102 23.6344C59.5328 23.7526 59.3948 23.9168 59.2963 24.127C59.1978 24.3307 59.1485 24.5672 59.1485 24.8365C59.1485 25.1059 59.1978 25.3456 59.2963 25.5559C59.3948 25.7661 59.5295 25.9303 59.7003 26.0485C59.8777 26.1668 60.078 26.2259 60.3014 26.2259ZM65.9447 27.4182C65.4586 27.4182 65.0283 27.3098 64.6539 27.0931C64.2794 26.8697 63.9838 26.5642 63.767 26.1766C63.5568 25.7891 63.4517 25.3424 63.4517 24.8365C63.4517 24.3307 63.5601 23.884 63.7769 23.4964C64.0002 23.1088 64.3024 22.8066 64.6834 22.5898C65.071 22.3665 65.5144 22.2548 66.0137 22.2548C66.4473 22.2548 66.8447 22.3698 67.206 22.5997C67.5739 22.8231 67.8662 23.1548 68.083 23.5949C68.3064 24.0285 68.418 24.5573 68.418 25.1814H64.6834L64.8017 25.0632C64.8017 25.3062 64.8608 25.5197 64.979 25.7037C65.1039 25.881 65.2615 26.019 65.452 26.1175C65.6491 26.2095 65.8593 26.2555 66.0827 26.2555C66.352 26.2555 66.5721 26.1996 66.7429 26.088C66.9137 25.9697 67.0451 25.8186 67.137 25.6347L68.2998 26.088C68.1618 26.3639 67.9812 26.6036 67.7578 26.8073C67.541 27.0044 67.2816 27.1555 66.9794 27.2606C66.6772 27.3657 66.3323 27.4182 65.9447 27.4182ZM64.8706 24.334L64.7524 24.2157H67.1272L67.0188 24.334C67.0188 24.0975 66.9629 23.9103 66.8513 23.7723C66.7396 23.6278 66.6016 23.5227 66.4374 23.457C66.2797 23.3913 66.1254 23.3584 65.9743 23.3584C65.8232 23.3584 65.6622 23.3913 65.4914 23.457C65.3206 23.5227 65.1728 23.6278 65.048 23.7723C64.9298 23.9103 64.8706 24.0975 64.8706 24.334ZM69.1739 27.3V20.4023H70.4746V27.3H69.1739Z" fill="#FFEE32"/>
<path d="M49.147 38.0923V31.9139L49.2751 31.1946H50.4379V38.0923H49.147ZM47.6886 33.3723V32.1504C47.8529 32.1636 48.0302 32.1241 48.2207 32.0322C48.4113 31.9336 48.5985 31.8088 48.7824 31.6577C48.9729 31.5001 49.1372 31.3424 49.2751 31.1847L50.1324 32.0223C49.8959 32.2851 49.6463 32.5249 49.3835 32.7416C49.1207 32.9519 48.8481 33.1161 48.5656 33.2343C48.2897 33.3526 47.9974 33.3986 47.6886 33.3723ZM54.5752 38.2105C54.0169 38.2105 53.5242 38.0594 53.0972 37.7573C52.6702 37.4485 52.3351 37.0281 52.0921 36.496C51.849 35.9573 51.7275 35.3398 51.7275 34.6434C51.7275 33.9471 51.849 33.3329 52.0921 32.8008C52.3351 32.2621 52.6669 31.8417 53.0873 31.5395C53.5143 31.2307 54.007 31.0763 54.5654 31.0763C55.1238 31.0763 55.6165 31.2307 56.0435 31.5395C56.477 31.8417 56.8154 32.2621 57.0584 32.8008C57.3015 33.3329 57.423 33.9471 57.423 34.6434C57.423 35.3398 57.3015 35.9573 57.0584 36.496C56.8154 37.0281 56.4803 37.4485 56.0533 37.7573C55.6263 38.0594 55.1336 38.2105 54.5752 38.2105ZM54.5752 36.9887C54.8709 36.9887 55.1336 36.8901 55.3636 36.693C55.6 36.4894 55.784 36.2135 55.9154 35.8653C56.0468 35.5106 56.1124 35.1033 56.1124 34.6434C56.1124 34.1836 56.0468 33.7763 55.9154 33.4216C55.784 33.0668 55.6 32.7909 55.3636 32.5938C55.1336 32.3902 54.8676 32.2884 54.5654 32.2884C54.2698 32.2884 54.007 32.3902 53.7771 32.5938C53.5472 32.7909 53.3665 33.0668 53.2351 33.4216C53.1103 33.7763 53.0479 34.1836 53.0479 34.6434C53.0479 35.1033 53.1103 35.5106 53.2351 35.8653C53.3665 36.2135 53.5472 36.4894 53.7771 36.693C54.0136 36.8901 54.2796 36.9887 54.5752 36.9887ZM60.9649 38.2105C60.4065 38.2105 59.9138 38.0594 59.4868 37.7573C59.0598 37.4485 58.7247 37.0281 58.4817 36.496C58.2386 35.9573 58.1171 35.3398 58.1171 34.6434C58.1171 33.9471 58.2386 33.3329 58.4817 32.8008C58.7247 32.2621 59.0565 31.8417 59.4769 31.5395C59.9039 31.2307 60.3966 31.0763 60.955 31.0763C61.5134 31.0763 62.0061 31.2307 62.4331 31.5395C62.8666 31.8417 63.205 32.2621 63.448 32.8008C63.6911 33.3329 63.8126 33.9471 63.8126 34.6434C63.8126 35.3398 63.6911 35.9573 63.448 36.496C63.205 37.0281 62.8699 37.4485 62.4429 37.7573C62.0159 38.0594 61.5232 38.2105 60.9649 38.2105ZM60.9649 36.9887C61.2605 36.9887 61.5232 36.8901 61.7532 36.693C61.9897 36.4894 62.1736 36.2135 62.305 35.8653C62.4364 35.5106 62.5021 35.1033 62.5021 34.6434C62.5021 34.1836 62.4364 33.7763 62.305 33.4216C62.1736 33.0668 61.9897 32.7909 61.7532 32.5938C61.5232 32.3902 61.2572 32.2884 60.955 32.2884C60.6594 32.2884 60.3966 32.3902 60.1667 32.5938C59.9368 32.7909 59.7561 33.0668 59.6247 33.4216C59.4999 33.7763 59.4375 34.1836 59.4375 34.6434C59.4375 35.1033 59.4999 35.5106 59.6247 35.8653C59.7561 36.2135 59.9368 36.4894 60.1667 36.693C60.4032 36.8901 60.6692 36.9887 60.9649 36.9887ZM67.3545 38.2105C66.7961 38.2105 66.3034 38.0594 65.8764 37.7573C65.4494 37.4485 65.1143 37.0281 64.8713 36.496C64.6282 35.9573 64.5067 35.3398 64.5067 34.6434C64.5067 33.9471 64.6282 33.3329 64.8713 32.8008C65.1143 32.2621 65.4461 31.8417 65.8665 31.5395C66.2935 31.2307 66.7862 31.0763 67.3446 31.0763C67.903 31.0763 68.3957 31.2307 68.8227 31.5395C69.2562 31.8417 69.5946 32.2621 69.8376 32.8008C70.0807 33.3329 70.2022 33.9471 70.2022 34.6434C70.2022 35.3398 70.0807 35.9573 69.8376 36.496C69.5946 37.0281 69.2595 37.4485 68.8325 37.7573C68.4055 38.0594 67.9128 38.2105 67.3545 38.2105ZM67.3545 36.9887C67.6501 36.9887 67.9128 36.8901 68.1428 36.693C68.3793 36.4894 68.5632 36.2135 68.6946 35.8653C68.826 35.5106 68.8917 35.1033 68.8917 34.6434C68.8917 34.1836 68.826 33.7763 68.6946 33.4216C68.5632 33.0668 68.3793 32.7909 68.1428 32.5938C67.9128 32.3902 67.6468 32.2884 67.3446 32.2884C67.049 32.2884 66.7862 32.3902 66.5563 32.5938C66.3264 32.7909 66.1457 33.0668 66.0143 33.4216C65.8895 33.7763 65.8271 34.1836 65.8271 34.6434C65.8271 35.1033 65.8895 35.5106 66.0143 35.8653C66.1457 36.2135 66.3264 36.4894 66.5563 36.693C66.7928 36.8901 67.0588 36.9887 67.3545 36.9887Z" fill="white"/>
<defs>
<linearGradient id="paint0_linear_24_257" x1="103.877" y1="16.3551" x2="20.5543" y2="106.308" gradientUnits="userSpaceOnUse">
<stop stop-color="#EF9D00"/>
<stop offset="1" stop-color="#FFEE32"/>
</linearGradient>
<linearGradient id="paint1_linear_24_257" x1="103.877" y1="16.3551" x2="20.5543" y2="106.308" gradientUnits="userSpaceOnUse">
<stop stop-color="#EF9D00"/>
<stop offset="1" stop-color="#FFEE32"/>
</linearGradient>
</defs>
</svg>
